# xmcd
#
# Track frame offsets:
#	150
#	10654
#	22800
#	36119
#	49940
#	61633
#	77015
#	93786
#	105187
#	121690
#	135787
#	148332
#	160340
#	173091
#
# Disc length: 2484 seconds
#
# Revision: 1
# Processed by: cddbd v1.5.2PL0 Copyright (c) Steve Scherf et al.
# Submitted via: EZCDAudioConverter 9.0.7.1
#
DISCID=9709b20e
DTITLE=Charlie Dicks - Greatest Hits
DYEAR=1994
DGENRE=Traditional Country
TTITLE0=Medals For Mothers
TTITLE1=Mister Fire Eyes
TTITLE2=All Kinds Of Everything
TTITLE3=Rose Garden
TTITLE4=Vaya Con Dios
TTITLE5=One Day At A Time
TTITLE6=Green To Blue
TTITLE7=Walking Piece Of Heaven
TTITLE8=Picking Up Pebbles
TTITLE9=Mama's Never Seen Those Eyes
TTITLE10=Halfway To Paradise
TTITLE11=Stand Beside Me
TTITLE12=It Should Have Been Easy
TTITLE13=The French Song
EXTD=
EXTT0=
EXTT1=
EXTT2=
EXTT3=
EXTT4=
EXTT5=
EXTT6=
EXTT7=
EXTT8=
EXTT9=
EXTT10=
EXTT11=
EXTT12=
EXTT13=
PLAYORDER=
